<?xml version="1.0" encoding="utf-8"?>
<!-- Generator: Adobe Illustrator 17.1.0, SVG Export Plug-In . SVG Version: 6.00 Build 0)  -->
<!DOCTYPE svg PUBLIC "-//W3C//DTD SVG 1.1//EN" "http://www.w3.org/Graphics/SVG/1.1/DTD/svg11.dtd">
<svg version="1.1" id="Layer_1" xmlns="http://www.w3.org/2000/svg" xmlns:xlink="http://www.w3.org/1999/xlink" x="0px" y="0px"
	 viewBox="0 0 1073.3 483.4" enable-background="new 0 0 1073.3 483.4" xml:space="preserve">
<path fill="#FAFAFC" d="M109.6,207.5c-40.3-0.7-70.9-20.2-92.7-54.3c-11.4-17.9-11.4-12.8-0.1-31.1c16.9-27.4,40.7-46,72.8-52.4
	c52.7-10.5,100,15.1,122.3,65.5c0.8,1.9,0.7,3.4-0.2,5.2c-18.9,36-46.6,60.3-88,66.3C119.4,207.4,115,207.2,109.6,207.5z
	 M110.3,196.1c33,0,59.5-26.4,59.5-59.2c0-32.7-26.8-59.5-59.4-59.6C78,77.2,51,104.2,51,136.7C51,169.6,77.5,196.1,110.3,196.1z"/>
<path fill="#E5172B" d="M210.9,80.2c-49.9-63.4-156.4-60-198.7-1c0.4-9.5-1.9-17.9,4-26C33.7,29,55.5,10.8,84.9,3.7
	c31.2-7.5,60.1-0.8,86.5,17c13.3,9,24.5,20.2,34.3,32.9c3.6,4.7,5.9,9.4,5.2,15.5C210.5,72.3,210.9,75.6,210.9,80.2z"/>
<path fill="#88D001" d="M478.2,71.7c22.7,10.9,45.6,20.3,65.7,34.8c10.2,7.3,13.6,17.9,10.9,30c-2.6,11.6-10.1,19.2-21.4,22.1
	c-11.5,2.9-21.8-0.2-29.8-9.2c-4.2-4.7-6.2-10.6-8.4-16.3c-7.2-19.2-12.3-39-17.1-58.9C477.9,73.6,478,73.1,478.2,71.7z"/>
<path fill="#88D001" d="M386.5,71.8c-3.1,13.8-6.6,26.6-10.4,39.3c-3.4,11.1-6.6,22.4-11.9,32.8c-7.8,15.3-26.7,20.7-41.4,11.8
	c-18-10.9-19.5-36.4-2.6-48.9c14.2-10.6,30.4-17.8,46.2-25.6C372.8,78,379.3,75.1,386.5,71.8z"/>
<path fill="#924DCC" d="M683.9,51.5c-12.3,0-24.7-0.3-37,0.1c-5.6,0.2-4.6-3.2-4.7-6.5c-0.1-3.3-0.5-6,4.6-6
	c23.8,0.3,47.7,0.1,71.5,0.1c3.4,0,9.2,8.4,7.7,11.2c-0.9,1.6-2.7,1-4.1,1C709.2,51.6,696.5,51.5,683.9,51.5z"/>
<path fill="#924DCC" d="M805.8,51.6c-12.5,0-24.9-0.1-37.4,0c-3.4,0-4.4-0.7-3.1-4.3c2.8-7.9,2.5-8,10.8-8c21.9,0,43.9,0.1,65.8-0.1
	c4.8-0.1,6.1,1.3,6.1,6.1c0,5-1.1,6.6-6.4,6.4C829.8,51.3,817.8,51.6,805.8,51.6z"/>
<path fill="#F5D001" d="M465.7,170.1c0.4,0,0.6,0.4,0.4,0.7c-3.8,7.4-9.1,12.3-16.1,14.7c-12.8,4.4-25.8,4.7-38.3-1.3
	c-4.9-2.3-8.8-6-11.8-10.5c-0.6-0.9-1.8-1.9-1-3c0.4-0.6,1.8-0.6,2.7-0.6C422.6,170.1,443.7,170.1,465.7,170.1z"/>
<path fill="#F5D001" d="M398.7,76.7c-0.4,0-0.6-0.4-0.4-0.7c3.8-7.4,9.1-12.3,16.1-14.7c12.8-4.4,25.8-4.7,38.3,1.3
	c4.9,2.3,8.8,6,11.8,10.5c0.6,0.9,1.8,1.9,1,3c-0.4,0.6-1.8,0.6-2.7,0.6C441.8,76.7,420.7,76.7,398.7,76.7z"/>
<path fill="#904CC9" d="M810.4,26.9c-10.8,0-21.7-0.1-32.5,0.1c-4.1,0.1-5.5-0.8-3.9-5.1c2.6-7.1,2.4-7.2,10.1-7.2
	c19.3,0,38.7,0.2,58-0.1c5.1-0.1,6,1.9,6,6.4c0,4.3-0.8,6.2-5.7,6C831.7,26.6,821,26.9,810.4,26.9z"/>
<path fill="#904CC9" d="M679.9,26.9c-11.1,0-22.3-0.1-33.4,0.1c-3.7,0.1-4.8-1.5-4.3-4.8c0.4-3-1.9-7.5,4.2-7.5
	c21.1,0.1,42.2,0,63.3,0c2.8,0,8.1,8.3,7,10.9c-0.8,1.9-2.6,1.2-3.9,1.2C701.8,26.9,690.9,26.9,679.9,26.9z"/>
<path fill="#904CC9" d="M786.6,87.4c10.2,0,20.3,0.2,30.5-0.1c5.1-0.2,4.7,2.8,4.6,6.1c-0.1,3.2,1,6.8-4.6,6.6
	c-9.8-0.4-19.7-0.1-29.5-0.1c-1.6,0-3.4,0.4-4.3-1.6c-0.1-0.3-0.9-0.7-1-0.6c-4.3,4.6-9.7,1.7-14.6,2.1c-5.3,0.5-10.7,0-16,0.2
	c-3.8,0.1-4.1-1.5-3.1-4.6c2.7-7.9,2.6-7.9,11-7.9C768.6,87.4,777.6,87.4,786.6,87.4z"/>
<path fill="#F87624" d="M413.2,20.1c9.3,0.1,16.8,7.8,16.5,17c-0.2,9.2-8,16.6-17.2,16.4c-9.1-0.2-16.2-7.7-16.1-16.9
	C396.5,27,403.6,19.9,413.2,20.1z"/>
<path fill="#F87624" d="M451.9,20.1c9.2,0.2,16.6,7.9,16.3,17.2c-0.3,9.1-7.8,16.3-16.9,16.2c-9.4-0.1-16.6-7.6-16.4-17
	C435.1,26.9,442.4,19.9,451.9,20.1z"/>
<path fill="#924DCC" d="M701.9,75.5c-9.8,0-19.6-0.2-29.4,0.1c-4.4,0.1-4.5-2.4-4.1-5.4c0.3-2.9-1.7-7,4.1-7
	c18.4,0.1,36.9,0,55.3,0.1c2.9,0,8.5,9,7.1,11.3c-0.8,1.4-2.4,0.9-3.6,0.9C721.5,75.5,711.7,75.5,701.9,75.5z"/>
<path fill="#924DCC" d="M815.6,172.6c-9.1,0-18.3-0.1-27.4,0.1c-3.7,0.1-5-1-4.9-4.8c0.1-7.6-0.1-7.6,7.5-7.6
	c17.5,0,34.9,0.2,52.4-0.1c5.5-0.1,4.7,3,4.7,6.4c0,3.4,0.5,6.5-4.9,6.2C834,172.2,824.8,172.6,815.6,172.6z"/>
<path fill="#924DCC" d="M673.9,196.6c-9,0-18-0.2-26.9,0.1c-3.7,0.1-4.9-1.1-4.8-4.8c0.3-8.8-0.4-7.5,7.5-7.5
	c17.3-0.1,34.6,0.2,51.8-0.1c5.1-0.1,5.2,2.3,5.1,6.1c0,3.8,0.2,6.7-5.3,6.5C692.2,196.3,683,196.6,673.9,196.6z"/>
<path fill="#924DCC" d="M674.9,160.2c9,0,18,0.3,26.9-0.1c5.5-0.2,4.7,3.2,4.7,6.5c0.1,3.3,0.4,6.1-4.7,6.1
	c-18.4-0.2-36.9-0.2-55.3,0c-3.7,0-4.4-1.5-4.4-4.7c0-7.7-0.1-7.7,7.3-7.7C657.9,160.2,666.4,160.2,674.9,160.2z"/>
<path fill="#924DCC" d="M788.6,75.5c-9.6,0-19.3-0.1-28.9,0c-3.3,0-4.4-0.9-2.8-4c0.7-1.3,1-2.8,1.4-4.3c0.8-3,2.6-4.1,5.8-4.1
	c17.6,0.2,35.3,0.3,52.9,0c5.5-0.1,4.6,3.2,4.7,6.5c0.1,3.3,0.4,6.2-4.6,6C807.6,75.3,798.1,75.5,788.6,75.5z"/>
<path fill="#924DCC" d="M784.8,184.7c14.6-0.9,29.1-0.2,43.7-0.4c6.3-0.1,12.6-0.4,18.8,0.6c0,3.7-0.1,7.4-0.1,11
	c-0.2,0.2-0.3,0.2-0.5,0.2c-17.1-0.1-34.3-0.2-51.4-0.2C784,196,784,196,784.8,184.7z"/>
<path fill="#924DCC" d="M745.8,111.9c8.8,0,17.6,0.1,26.4-0.1c3.5-0.1,4.6,0.9,3.1,4.3c-3.9,9-1,7.8-11,7.8c-13.6,0.1-27.3,0-40.9,0
	c-4.1,0-9.3-6.6-8.3-10.6c0.5-2.1,2.4-1.4,3.7-1.4C727.8,111.9,736.8,111.9,745.8,111.9z"/>
<path fill="#904CC9" d="M740,88.8c2.6,2.2,2.7,5.5,3.9,8.4c0.8,2-0.3,2.7-2.2,2.7c-9.6,0-19.3-0.1-28.9,0c-4,0.1-3.1-4.2-5.8-6.1
	c0.5,6.4-3.3,6.3-7.5,6.2c-8.8-0.2-17.6-0.2-26.4,0c-3.3,0.1-4.8-0.8-4.7-4.4c0-8.1-0.2-8.1,8.1-8.1c19.5,0,38.9,0,58.4,0.1
	C736.5,87.5,738.8,86.4,740,88.8c-10.4,0-20.8,0-31.3,0c2.4,10,0.8,9.1,10.5,9.1c6,0,11.9-0.1,17.9,0c4.3,0.1,6.3-0.9,3.4-5.3
	C739.8,91.7,740.1,90.1,740,88.8z"/>
<path fill="#924DCC" d="M745.7,136c6.2,0,12.3,0.1,18.5,0c3.1-0.1,3.7,0.9,2.6,3.8c-3.8,10.2-2.1,8.4-12.2,8.5c-8,0.1-16,0.1-24,0
	c-3.1,0-8.5-8.7-7.1-11.4c0.7-1.3,2-0.9,3.1-0.9C733,136,739.3,136,745.7,136z"/>
<path fill="#924DCC" d="M802.5,148.3c-4.6,0-9.3-0.3-13.9,0.1c-4.3,0.3-5.7-1.5-5.1-5.4c0.1-0.7,0.1-1.3,0-2c-0.6-3.9,1-5.2,5-5.1
	c9.6,0.3,19.3,0.3,28.9,0c4.7-0.2,4.7,2.4,4.5,5.6c-0.2,3,1.5,7.1-4.3,6.9C812.4,148.2,807.4,148.3,802.5,148.3z"/>
<path fill="#924DCC" d="M687.9,136c4.8,0,9.6,0.1,14.4,0c2.8-0.1,4.2,0.6,4.3,3.8c0.2,8.5,0.4,8.5-8.2,8.5c-8.5,0-16.9-0.2-25.4,0.1
	c-5.9,0.2-4.5-3.8-4.7-7c-0.2-3.4,0.1-5.8,4.6-5.5C677.9,136.3,682.9,136,687.9,136z"/>
<path fill="#924DCC" d="M802.1,124c-5,0-10-0.1-15,0c-2.8,0.1-4.1-0.8-3.8-3.7c0.1-1.3,0.2-2.7,0-4c-0.4-3.5,1.1-4.6,4.5-4.5
	c9.6,0.2,19.3,0.4,28.9,0c5.4-0.2,4.8,2.8,4.9,6.3c0.1,3.8-0.1,6.5-5.1,6C811.8,123.6,807,124,802.1,124z"/>
<path fill="#924DCC" d="M687.5,111.9c5,0,10,0.1,14.9,0c2.9-0.1,4.4,0.8,4.1,4c-0.2,1.8-0.1,3.6-0.1,5.5c0,1.9-0.9,2.7-2.8,2.7
	c-10.8,0-21.6,0-32.3,0c-2.5,0-3.2-1.2-3.1-3.4c0.1-1.7,0.1-3.3,0-5c-0.2-2.9,1.1-3.8,3.8-3.7C677.2,112,682.4,111.9,687.5,111.9z"
	/>
<path fill="#904CC9" d="M745.5,160.2c3.5,0,7,0,10.5,0c2.3,0,2.7,0.9,2.3,3.1c-1.7,8.3-2.8,9.2-11,9.2c-1.3,0-2.7,0-4,0
	c-8.2,0-8.1-0.1-10.8-8.1c-1.1-3.4-0.6-4.5,3-4.3C738.8,160.4,742.2,160.2,745.5,160.2z"/>
<path fill="#904CC9" d="M745.2,199.3c-2.6-4-3.3-7.8-4.7-11.3c-1-2.5-0.2-3.8,2.6-3.6c1.2,0.1,2.3,0.1,3.5,0c2.9-0.2,4,0.7,2.8,3.7
	C748.1,191.5,746.8,195,745.2,199.3z"/>
<path fill="#777677" d="M784.8,184.7C784,196,784,196,795.3,196c17.1,0.1,34.3,0.2,51.4,0.2c-1.4,0.9-2.9,0.6-4.4,0.6
	c-18,0-36-0.1-53.9,0.1c-4.2,0-6-1.3-5.2-5.4C783.7,189.3,781.3,186.3,784.8,184.7z"/>
<path fill="#777677" d="M847.3,196c0-3.7,0.1-7.4,0.1-11C848.9,188.7,849.1,192.4,847.3,196z"/>
<path fill="#57A7FC" d="M110.3,196.1c-32.9,0-59.4-26.5-59.4-59.4c0-32.5,27-59.5,59.5-59.5c32.6,0.1,59.4,26.9,59.4,59.6
	C169.8,169.7,143.3,196.1,110.3,196.1z M111.3,159.3c13.4,0,23.5-10,23.6-23.2c0-13-10.4-23.7-23.2-23.9
	C98.6,112,87.8,122.8,87.8,136C87.8,149.1,98.1,159.2,111.3,159.3z"/>
<path fill="#924DCC" d="M740,88.8c0.1,1.3-0.2,2.9,0.5,3.8c2.9,4.5,0.9,5.4-3.4,5.3c-6-0.1-11.9,0-17.9,0c-9.7,0-8,0.8-10.5-9.1
	C719.2,88.9,729.6,88.9,740,88.8C740,88.9,740,88.8,740,88.8z"/>
<path fill="#030306" d="M111.3,159.3c-13.2,0-23.5-10.2-23.5-23.3c0-13.2,10.8-23.9,23.9-23.8c12.9,0.1,23.2,10.8,23.2,23.9
	C134.8,149.3,124.7,159.3,111.3,159.3z"/>
<path fill="#F0CD04" d="M466.7,112.7h-69c-2.2,0-4-1.8-4-4v-10c0-2.2,1.8-4,4-4h69c2.2,0,4,1.8,4,4v10
	C470.7,110.9,468.9,112.7,466.7,112.7z"/>
<path fill="#F0CD04" d="M466.5,150.4h-69c-2.2,0-4-1.8-4-4v-10c0-2.2,1.8-4,4-4h69c2.2,0,4,1.8,4,4v10
	C470.5,148.6,468.7,150.4,466.5,150.4z"/>
</svg>
