<?xml version="1.0" encoding="UTF-8" standalone="no"?>
<svg width="87px" height="35px" viewBox="0 0 87 35" version="1.1" xmlns="http://www.w3.org/2000/svg" xmlns:xlink="http://www.w3.org/1999/xlink" xmlns:sketch="http://www.bohemiancoding.com/sketch/ns">
    <!-- Generator: Sketch 3.4.4 (17249) - http://www.bohemiancoding.com/sketch -->
    <title>Page 1</title>
    <desc>Created with Sketch.</desc>
    <defs></defs>
    <g id="Page-1" stroke="none" stroke-width="1" fill="none" fill-rule="evenodd" sketch:type="MSPage">
        <g id="Artboard-1-Copy-2" sketch:type="MSArtboardGroup" transform="translate(-100.000000, -33.000000)" fill="#FEFEFE">
            <g id="Section-1" sketch:type="MSLayerGroup" transform="translate(-40.000000, 0.000000)">
                <g id="Group" transform="translate(40.000000, 0.000000)" sketch:type="MSShapeGroup">
                    <g id="Page-1" transform="translate(100.000000, 32.000000)">
                        <path d="M0,3.69 L16.8945,3.69 L16.8945,1.3095 L0,1.3095 L0,3.69 Z" id="Fill-1"></path>
                        <path d="M19.3158,1.3104 L19.3158,3.6909 L43.5183,3.6909 L43.1403,3.3294 L42.6513,2.9769 L42.1443,2.6259 L41.5848,2.3319 L41.0358,2.0664 L40.4868,1.8429 L39.8853,1.6449 L39.2838,1.5174 L38.6913,1.4049 L38.0988,1.3104 L19.3158,1.3104 Z" id="Fill-2"></path>
                        <path d="M48.276,1.3104 L48.276,3.6909 L62.85,3.6909 L62.01,1.3104 L48.276,1.3104 Z" id="Fill-3"></path>
                        <path d="M73.17405,1.3104 L72.33255,3.6909 L86.77905,3.6909 L86.77905,1.3104 L73.17405,1.3104 Z" id="Fill-4"></path>
                        <path d="M0,8.2845 L16.8945,8.2845 L16.8945,5.94 L0,5.94 L0,8.2845 Z" id="Fill-5"></path>
                        <path d="M4.827,10.527 L12.0495,10.527 L12.0495,12.9225 L4.827,12.9225 L4.827,10.527 Z" id="Fill-6"></path>
                        <path d="M4.827,15.1305 L12.0495,15.1305 L12.0495,17.526 L4.827,17.526 L4.827,15.1305 Z" id="Fill-7"></path>
                        <path d="M45.22725,5.94 L45.35625,6.1635 L45.62175,6.7215 L45.84525,7.3395 L46.12875,8.2845 L19.31475,8.2845 L19.31475,5.94 L45.22725,5.94 Z" id="Fill-8"></path>
                        <path d="M24.1425,10.527 L31.3575,10.527 L31.3575,12.9225 L24.1425,12.9225 L24.1425,10.527 Z" id="Fill-9"></path>
                        <path d="M46.3524,10.5264 L46.3359,10.9044 L46.2669,11.5224 L46.1724,12.1239 L46.0254,12.7164 L45.9579,12.9219 L38.6229,12.9219 L38.6229,10.5264 L46.3524,10.5264 Z" id="Fill-10"></path>
                        <path d="M44.93535,15.12975 L44.71185,15.46425 L44.33385,15.95475 L43.93935,16.41825 L43.51785,16.85625 L43.05435,17.25975 L42.65085,17.52525 L24.14235,17.52525 L24.14235,15.12975 L44.93535,15.12975 Z" id="Fill-11"></path>
                        <path d="M48.2763,5.94 L63.6243,5.94 L64.4658,8.2845 L48.2763,8.2845 L48.2763,5.94 Z" id="Fill-12"></path>
                        <path d="M71.55135,5.93955 L70.73535,8.28405 L86.77935,8.28405 L86.77935,5.93955 L71.55135,5.93955 Z" id="Fill-13"></path>
                        <path d="M53.1117,10.5264 L65.2212,10.5264 L66.0627,12.9219 L53.1117,12.9219 L53.1117,10.5264 Z" id="Fill-14"></path>
                        <path d="M82.07235,10.5264 L82.07235,12.9219 L69.11235,12.9219 L69.93735,10.5264 L82.07235,10.5264 Z" id="Fill-15"></path>
                        <path d="M61.1076,17.526 L74.1021,17.526 L74.8326,15.396 L74.8326,17.526 L82.0731,17.526 L82.0731,15.1305 L68.3481,15.1305 L67.5921,17.259 L66.8361,15.1305 L53.1111,15.1305 L53.1111,17.526 L60.3516,17.526 L60.3516,15.3795 L61.1076,17.526 Z" id="Fill-16"></path>
                        <path d="M0,36 L16.8945,36 L16.8945,33.5865 L0,33.5865 L0,36 Z" id="Fill-17"></path>
                        <path d="M0,31.362 L16.8945,31.362 L16.8945,28.9485 L0,28.9485 L0,31.362 Z" id="Fill-18"></path>
                        <path d="M4.827,19.7595 L12.0495,19.7595 L12.0495,22.1295 L4.827,22.1295 L4.827,19.7595 Z" id="Fill-19"></path>
                        <path d="M4.827,24.363 L12.0495,24.363 L12.0495,26.7585 L4.827,26.7585 L4.827,24.363 Z" id="Fill-20"></path>
                        <path d="M42.6507,19.75905 L43.0542,20.05155 L43.5177,20.44605 L43.9392,20.89305 L44.3337,21.35655 L44.7117,21.84555 L44.9352,22.12905 L24.1422,22.12905 L24.1422,19.75905 L42.6507,19.75905 Z" id="Fill-21"></path>
                        <path d="M24.1425,24.363 L31.3575,24.363 L31.3575,26.7585 L24.1425,26.7585 L24.1425,24.363 Z" id="Fill-22"></path>
                        <path d="M45.9573,24.36255 L46.0263,24.59505 L46.1718,25.18755 L46.2663,25.78005 L46.3353,26.39805 L46.3518,26.75805 L38.6223,26.75805 L38.6223,24.36255 L45.9573,24.36255 Z" id="Fill-23"></path>
                        <path d="M46.12905,28.94895 L46.02555,29.43795 L45.84555,30.01395 L45.62205,30.58995 L45.35655,31.14795 L45.22755,31.36245 L19.31505,31.36245 L19.31505,28.94895 L46.12905,28.94895 Z" id="Fill-24"></path>
                        <path d="M19.3158,33.5862 L19.3158,35.9997 L37.3863,35.9997 L38.0043,35.9742 L38.6223,35.9052 L39.1983,35.7942 L39.7998,35.6652 L40.3998,35.4582 L40.9503,35.2437 L41.5083,34.9782 L42.0573,34.6872 L42.5658,34.3512 L43.0548,33.9732 L43.5183,33.5862 L19.3158,33.5862 Z" id="Fill-25"></path>
                        <path d="M53.112,19.7595 L60.3525,19.7595 L60.3525,22.1295 L53.112,22.1295 L53.112,19.7595 Z" id="Fill-26"></path>
                        <path d="M72.4875,22.1295 L62.6715,22.1295 L61.8555,19.7595 L73.32,19.7595 L72.4875,22.1295 Z" id="Fill-27"></path>
                        <path d="M74.832,19.7595 L82.0725,19.7595 L82.0725,22.1295 L74.832,22.1295 L74.832,19.7595 Z" id="Fill-28"></path>
                        <path d="M53.112,24.363 L60.3525,24.363 L60.3525,26.7585 L53.112,26.7585 L53.112,24.363 Z" id="Fill-29"></path>
                        <path d="M71.75745,24.36255 L70.93245,26.75805 L64.25145,26.75805 L63.42645,24.36255 L71.75745,24.36255 Z" id="Fill-30"></path>
                        <path d="M74.832,24.363 L82.0725,24.363 L82.0725,26.7585 L74.832,26.7585 L74.832,24.363 Z" id="Fill-31"></path>
                        <path d="M48.276,28.9485 L60.351,28.9485 L60.351,31.362 L48.276,31.362 L48.276,28.9485 Z" id="Fill-32"></path>
                        <path d="M70.17735,28.94895 L69.36135,31.36245 L65.82285,31.36245 L64.99785,28.94895 L70.17735,28.94895 Z" id="Fill-33"></path>
                        <path d="M74.832,31.362 L86.7795,31.362 L86.7795,28.9485 L74.832,28.9485 L74.832,31.362 Z" id="Fill-34"></path>
                        <path d="M48.276,36 L60.3525,36 L60.3525,33.5865 L48.276,33.5865 L48.276,36 Z" id="Fill-35"></path>
                        <path d="M74.832,36 L86.7795,36 L86.7795,33.5865 L74.832,33.5865 L74.832,36 Z" id="Fill-36"></path>
                        <path d="M66.5955,33.5862 L67.4115,35.9997 L67.764,35.9997 L68.5875,33.5862 L66.5955,33.5862 Z" id="Fill-37"></path>
                    </g>
                </g>
            </g>
        </g>
    </g>
</svg>