<?xml version="1.0" encoding="UTF-8" standalone="no"?>
<svg
   xmlns:dc="http://purl.org/dc/elements/1.1/"
   xmlns:cc="http://creativecommons.org/ns#"
   xmlns:rdf="http://www.w3.org/1999/02/22-rdf-syntax-ns#"
   xmlns:svg="http://www.w3.org/2000/svg"
   xmlns="http://www.w3.org/2000/svg"
   viewBox="0 0 928.08002 347.37332"
   height="347.37332"
   width="928.08002"
   xml:space="preserve"
   id="svg2"
   version="1.1"><metadata
     id="metadata8"><rdf:RDF><cc:Work
         rdf:about=""><dc:format>image/svg+xml</dc:format><dc:type
           rdf:resource="http://purl.org/dc/dcmitype/StillImage" /></cc:Work></rdf:RDF></metadata><defs
     id="defs6"><clipPath
       id="clipPath20"
       clipPathUnits="userSpaceOnUse"><path
         id="path18"
         d="M 0,0 H 6960.57 V 2605 H 0 Z" /></clipPath></defs><g
     transform="matrix(1.3333333,0,0,-1.3333333,0,347.37333)"
     id="g10"><g
       transform="scale(0.1)"
       id="g12"><g
         id="g14"><g
           clip-path="url(#clipPath20)"
           id="g16"><path
             id="path22"
             style="fill:#231f20;fill-opacity:1;fill-rule:nonzero;stroke:none"
             d="m 1439.97,534.75 h 1996.69 c -2.83,-41.699 -41.13,-155.629 -59.1,-182.16 H 1439.97 v 182.16" /><path
             id="path24"
             style="fill:#231f20;fill-opacity:1;fill-rule:nonzero;stroke:none"
             d="m 1440,2260.24 h 1940.92 c 16.64,-29.99 54.39,-143.4 59.1,-182.15 H 1440 v 182.15" /><path
             id="path26"
             style="fill:#231f20;fill-opacity:1;fill-rule:nonzero;stroke:none"
             d="m 1799.97,1224.95 h 1385 c 45.16,-31.61 128.78,-135.5 162.2,-182.16 h -1547.2 v 182.16" /><path
             id="path28"
             style="fill:#231f20;fill-opacity:1;fill-rule:nonzero;stroke:none"
             d="m 2879.97,697.691 h 577.36 c 1.47,47.61 -17.31,145.579 -31.54,182.161 H 2879.97 V 697.691" /><path
             id="path30"
             style="fill:#231f20;fill-opacity:1;fill-rule:nonzero;stroke:none"
             d="m 1799.97,1387.89 h 1387.15 c 45.16,31.64 128.08,135.5 161.49,182.16 H 1799.97 v -182.16" /><path
             id="path32"
             style="fill:#231f20;fill-opacity:1;fill-rule:nonzero;stroke:none"
             d="m 2879.97,1915.14 h 575.2 c -0.21,-42.24 -15.87,-145.57 -30.1,-182.15 h -545.1 v 182.15" /><path
             id="path34"
             style="fill:#231f20;fill-opacity:1;fill-rule:nonzero;stroke:none"
             d="M 1439.97,189.648 H 3245.32 C 3085.32,54.0703 2944.01,7.48828 2696.19,7.48828 H 1439.97 V 189.648" /><path
             id="path36"
             style="fill:#231f20;fill-opacity:1;fill-rule:nonzero;stroke:none"
             d="m 1440,2423.19 h 1805.34 c -160,135.61 -301.3,182.16 -549.12,182.16 H 1440 v -182.16" /><path
             id="path38"
             style="fill:#231f20;fill-opacity:1;fill-rule:nonzero;stroke:none"
             d="m 0,2423.19 h 1259.97 v 182.16 H 0 Z" /><path
             id="path40"
             style="fill:#231f20;fill-opacity:1;fill-rule:nonzero;stroke:none"
             d="M 0.00390625,2078.09 H 1259.9639 v 182.156 H 0.00390625 Z" /><path
             id="path42"
             style="fill:#231f20;fill-opacity:1;fill-rule:nonzero;stroke:none"
             d="M 0,352.582 H 1259.97 V 534.738 H 0 Z" /><path
             id="path44"
             style="fill:#231f20;fill-opacity:1;fill-rule:nonzero;stroke:none"
             d="m 359.965,697.691 h 540 v 182.16 h -540 z" /><path
             id="path46"
             style="fill:#231f20;fill-opacity:1;fill-rule:nonzero;stroke:none"
             d="m 359.965,1042.79 h 540 v 182.152 h -540 z" /><path
             id="path48"
             style="fill:#231f20;fill-opacity:1;fill-rule:nonzero;stroke:none"
             d="m 359.965,1387.89 h 540 v 182.16 h -540 z" /><path
             id="path50"
             style="fill:#231f20;fill-opacity:1;fill-rule:nonzero;stroke:none"
             d="m 359.973,1732.99 h 540 v 182.156 h -540 z" /><path
             id="path52"
             style="fill:#231f20;fill-opacity:1;fill-rule:nonzero;stroke:none"
             d="m 1799.97,697.691 h 540 v 182.16 h -540 z" /><path
             id="path54"
             style="fill:#231f20;fill-opacity:1;fill-rule:nonzero;stroke:none"
             d="m 1799.97,1732.99 h 540 v 182.156 h -540 z" /><path
             id="path56"
             style="fill:#231f20;fill-opacity:1;fill-rule:nonzero;stroke:none"
             d="m 4790.25,697.691 h 499.44 l 63.43,182.161 h -626.29 l 63.42,-182.161" /><path
             id="path58"
             style="fill:#231f20;fill-opacity:1;fill-rule:nonzero;stroke:none"
             d="m 4670.1,1042.79 h 739.74 l 63.43,182.15 h -866.6 l 63.43,-182.15" /><path
             id="path60"
             style="fill:#231f20;fill-opacity:1;fill-rule:nonzero;stroke:none"
             d="m 0,7.48047 h 1259.97 v 182.16 H 0 Z" /><path
             id="path62"
             style="fill:#231f20;fill-opacity:1;fill-rule:nonzero;stroke:none"
             d="m 5030.57,7.48047 h 18.81 L 5112.79,189.641 H 4967.15 L 5030.57,7.48047" /><path
             id="path64"
             style="fill:#231f20;fill-opacity:1;fill-rule:nonzero;stroke:none"
             d="m 3959.97,697.691 h 540 v 182.16 h -540 z" /><path
             id="path66"
             style="fill:#231f20;fill-opacity:1;fill-rule:nonzero;stroke:none"
             d="m 3959.97,1042.79 h 540 v 182.16 h -540 z" /><path
             id="path68"
             style="fill:#231f20;fill-opacity:1;fill-rule:nonzero;stroke:none"
             d="m 3599.97,7.48047 h 899.973 v 182.16 H 3599.97 Z" /><path
             id="path70"
             style="fill:#231f20;fill-opacity:1;fill-rule:nonzero;stroke:none"
             d="m 3599.97,352.582 h 899.973 V 534.738 H 3599.97 Z" /><path
             id="path72"
             style="fill:#231f20;fill-opacity:1;fill-rule:nonzero;stroke:none"
             d="m 4910.41,352.582 h 259.12 l 63.42,182.156 h -385.96 l 63.42,-182.156" /><path
             id="path74"
             style="fill:#231f20;fill-opacity:1;fill-rule:nonzero;stroke:none"
             d="m 5579.98,697.691 h 540 v 182.16 h -540 z" /><path
             id="path76"
             style="fill:#231f20;fill-opacity:1;fill-rule:nonzero;stroke:none"
             d="m 5579.98,1042.79 h 540 v 182.152 h -540 z" /><path
             id="path78"
             style="fill:#231f20;fill-opacity:1;fill-rule:nonzero;stroke:none"
             d="m 5579.97,7.48047 h 900 v 182.16 h -900 z" /><path
             id="path80"
             style="fill:#231f20;fill-opacity:1;fill-rule:nonzero;stroke:none"
             d="m 5580,352.582 h 899.969 V 534.738 H 5580 Z" /><path
             id="path82"
             style="fill:#231f20;fill-opacity:1;fill-rule:nonzero;stroke:none"
             d="m 4860.36,1915.14 h -900.39 v -182.15 h 964.9 l -64.51,182.15" /><path
             id="path84"
             style="fill:#231f20;fill-opacity:1;fill-rule:nonzero;stroke:none"
             d="m 5097.37,1570.05 -57.39,-163.47 -57.38,163.47 H 3959.98 v -182.16 h 539.99 v 143.51 l 49.97,-143.51 H 5530 l 49.97,143.51 v -1.05 l 0.01,0.03 v -142.49 h 540 v 182.16 H 5097.37" /><path
             id="path86"
             style="fill:#231f20;fill-opacity:1;fill-rule:nonzero;stroke:none"
             d="M 4615.91,2605.34 H 3599.97 v -182.15 h 1080.46 l -64.52,182.15" /><path
             id="path88"
             style="fill:#231f20;fill-opacity:1;fill-rule:nonzero;stroke:none"
             d="M 4738.13,2260.24 H 3599.97 v -182.15 h 1202.68 l -64.52,182.15" /><path
             id="path90"
             style="fill:#231f20;fill-opacity:1;fill-rule:nonzero;stroke:none"
             d="m 5219.59,1915.14 h 900.39 v -182.15 h -964.9 l 64.51,182.15" /><path
             id="path92"
             style="fill:#231f20;fill-opacity:1;fill-rule:nonzero;stroke:none"
             d="M 5464.04,2605.34 H 6479.98 V 2423.19 H 5399.52 l 64.52,182.15" /><path
             id="path94"
             style="fill:#231f20;fill-opacity:1;fill-rule:nonzero;stroke:none"
             d="M 5341.81,2260.24 H 6479.97 V 2078.09 H 5277.29 l 64.52,182.15" /><path
             id="path96"
             style="fill:#231f20;fill-opacity:1;fill-rule:nonzero;stroke:none"
             d="m 6815.15,152.172 c 22.48,0 55.44,-3.781 55.44,28.609 0,24.848 -20.22,27.86 -39.73,27.86 h -45.35 v -56.469 z m 74.59,-88.9025 h -23.28 l -45.34,73.4415 h -35.61 V 63.2695 h -19.48 V 222.559 h 69.33 c 41.97,0 56.21,-15.77 56.21,-42.161 0,-31.238 -21.72,-42.929 -49.85,-43.687 z m 48.32,79.8325 c 0,69.32 -50.24,123.539 -119.19,123.539 -69.34,0 -119.95,-54.219 -119.95,-123.539 0,-70.02 50.61,-124.2504 119.95,-124.2504 68.95,0 119.19,54.2304 119.19,124.2504 z m -261.62,0 c 0,78.347 63.74,142.378 142.43,142.378 78.36,0 141.7,-64.031 141.7,-142.378 C 6960.57,64.0117 6897.23,0 6818.87,0 6740.18,0 6676.44,64.0117 6676.44,143.102" /></g></g></g></g></svg>